<?xml version="1.0" standalone="no"?>
<!DOCTYPE svg PUBLIC "-//W3C//DTD SVG 20010904//EN"
 "http://www.w3.org/TR/2001/REC-SVG-20010904/DTD/svg10.dtd">
<svg version="1.0" xmlns="http://www.w3.org/2000/svg"
 width="512.000000pt" height="512.000000pt" viewBox="0 0 512.000000 512.000000"
 preserveAspectRatio="xMidYMid meet">

<g transform="translate(0.000000,512.000000) scale(0.100000,-0.100000)"
fill="#000000" stroke="none">
<path d="M0 2560 l0 -2560 2560 0 2560 0 0 2560 0 2560 -2560 0 -2560 0 0
-2560z m2976 1846 c291 -62 593 -204 779 -366 33 -29 61 -56 63 -60 4 -10
-797 -784 -823 -794 -17 -7 -42 -1 -106 27 -124 52 -183 68 -289 74 -77 5
-111 2 -180 -15 -218 -55 -412 -207 -506 -397 -87 -178 -97 -364 -29 -555 62
-176 100 -117 -358 -563 -219 -213 -402 -387 -407 -387 -5 0 -46 55 -91 123
-145 215 -248 454 -301 697 -20 93 -23 131 -23 345 1 223 3 249 28 367 86 403
265 747 518 999 250 248 594 426 973 504 170 34 157 33 406 30 197 -3 240 -6
346 -29z m949 -996 c70 -109 95 -140 112 -140 12 0 68 11 125 25 57 14 108 25
115 25 16 0 69 -143 104 -280 30 -119 66 -376 57 -402 -4 -9 -46 -23 -114 -37
-60 -13 -116 -27 -125 -32 -12 -6 -18 -30 -23 -96 -4 -48 -15 -137 -25 -196
l-18 -109 119 -59 c65 -32 118 -64 118 -70 0 -25 -62 -193 -104 -283 -50 -108
-98 -191 -163 -283 l-44 -63 -109 55 c-60 30 -120 55 -132 55 -15 -1 -69 -45
-161 -133 l-138 -132 50 -120 c28 -65 51 -125 51 -132 0 -17 -172 -117 -301
-175 -112 -50 -307 -112 -334 -106 -10 2 -36 49 -66 123 -28 66 -54 124 -59
128 -9 10 -355 -11 -386 -23 -16 -6 -29 -37 -60 -140 l-39 -132 -65 6 c-92 9
-278 52 -379 88 -95 33 -241 98 -241 106 0 3 18 66 41 139 22 74 39 140 37
148 -2 8 -53 52 -115 98 l-112 83 290 282 c178 174 299 284 316 288 30 8 70
-2 159 -40 97 -41 171 -56 274 -56 118 0 189 17 305 75 247 121 396 335 421
600 8 90 -9 198 -48 305 -17 47 -31 104 -32 128 l-1 43 300 290 c165 159 302
289 305 289 3 0 46 -63 95 -140z m-1263 -435 c112 -14 250 -124 306 -242 24
-53 27 -69 27 -173 0 -108 -2 -119 -31 -181 -76 -159 -214 -249 -384 -249
-134 0 -230 40 -319 135 -196 208 -136 548 119 673 63 31 159 52 210 46 14 -2
46 -6 72 -9z"/>
</g>
</svg>
